<svg width="20" height="11" viewBox="0 0 20 11" fill="none" xmlns="http://www.w3.org/2000/svg">
<path d="M19.4582 4.23742L15.8364 0.706206C15.3393 0.248457 14.5581 0.248457 14.061 0.640814C13.5639 1.09856 13.5639 1.81788 13.99 2.27563L16.0494 4.30281H1.27827C0.568121 4.30281 0 4.82595 0 5.47988C0 6.13381 0.568121 6.65695 1.27827 6.65695H16.1204L14.061 8.68413C13.5639 9.14188 13.6349 9.8612 14.132 10.3189C14.3451 10.5151 14.7001 10.6459 14.9842 10.6459C15.3393 10.6459 15.6233 10.5151 15.9074 10.3189L19.5292 6.78774C20.1683 6.00302 20.1683 4.95674 19.4582 4.23742Z" fill="#45525B"/>
</svg>
