<svg width="25" height="25" viewBox="0 0 25 25" fill="none" xmlns="http://www.w3.org/2000/svg">
<path d="M22.6608 0.015625H1.37046C0.59627 0.015625 0.015625 0.63498 0.015625 1.37046V22.6608C0.015625 23.435 0.63498 24.0156 1.37046 24.0156H12.8285V14.6866H9.73175V11.0866H12.8285V8.41562C12.8285 5.31885 14.6866 3.61562 17.4737 3.61562C18.4027 3.61562 19.3318 3.65433 20.2608 3.77046V6.98337H18.4027C16.9318 6.98337 16.6221 7.68014 16.6221 8.7253V11.0092H20.1447L19.6414 14.6479H16.5447V23.8608H22.6608C23.435 23.8608 24.0156 23.2801 24.0156 22.5059V1.37046C23.9769 0.59627 23.3576 0.015625 22.6608 0.015625Z" fill="white"/>
</svg>
