<svg width="25" height="25" viewBox="0 0 25 25" fill="none" xmlns="http://www.w3.org/2000/svg">
<path d="M13.91 0.0166016C15.5573 0.0198331 16.0278 0.0336826 17.0677 0.0930374C18.3853 0.131747 19.2379 0.325295 20.013 0.634973C20.7881 0.94465 21.447 1.33175 22.1058 1.98981C22.7646 2.64788 23.1909 3.30594 23.4622 4.11884C23.7335 4.93175 23.966 5.82207 24.0048 7.06078C24.0435 8.37691 23.966 8.80272 23.966 12.093L23.9657 13.7489C23.9657 13.8249 23.9656 13.8984 23.9655 13.9698L23.965 14.3718C23.9625 15.6923 23.9544 16.1421 23.9273 17.0092C23.8885 18.3253 23.656 19.1769 23.3847 19.9511C23.1134 20.7253 22.6871 21.4221 22.0283 22.0801C21.3695 22.7382 20.7106 23.164 19.8968 23.435C19.0829 23.7059 18.2691 23.9382 16.9514 23.9769C16.6 23.9872 16.3176 23.9948 16.0298 24.0004L15.8117 24.0041C15.4429 24.0099 15.0367 24.0127 14.4482 24.0142L14.072 24.0149C14.0053 24.015 13.9365 24.0151 13.8654 24.0151L10.3365 24.015C8.5184 24.0125 8.08435 24.0001 7.03022 23.9382C5.71256 23.8995 4.85996 23.6672 4.08486 23.3963C3.30977 23.1253 2.61219 22.6995 1.95336 22.0414C1.29453 21.3834 0.868226 20.7253 0.596943 19.9124C0.325661 19.0995 0.0931327 18.2866 0.054378 16.9705C0.046627 16.7072 0.0404263 16.4827 0.0354657 16.2656L0.0289162 15.9417C0.0225862 15.5792 0.0192705 15.194 0.0175338 14.6411L0.0166697 14.2881C0.0165534 14.2256 0.0164501 14.161 0.0163582 14.0944L0.0161285 11.3956C0.0207906 8.67454 0.0569616 8.28917 0.0931327 7.06078C0.131887 5.74465 0.325661 4.89304 0.635698 4.11884C0.906981 3.30594 1.33328 2.64788 1.99211 1.98981C2.65094 1.33175 3.30977 0.867231 4.12362 0.596263C4.93747 0.325295 5.75132 0.0930374 7.06898 0.0543277C7.99134 0.027231 8.43895 0.0191019 9.7544 0.0166632L13.91 0.0166016ZM14.1079 2.2228H10.0287C9.17525 2.224 8.66864 2.22713 8.20933 2.23535L7.99961 2.23951C7.75631 2.24482 7.51336 2.25175 7.22399 2.26078C6.0226 2.29949 5.40252 2.53175 4.97622 2.68659C4.43366 2.91884 4.04611 3.1511 3.61981 3.57691C3.23226 3.96401 2.96098 4.38981 2.72845 4.93175C2.57343 5.39626 2.3409 6.01562 2.30215 7.17691C2.29311 7.46594 2.28617 7.70861 2.28086 7.95162L2.27669 8.1611C2.26909 8.58459 2.26584 9.04833 2.26444 9.78768L2.26371 10.3976C2.26365 10.4719 2.26361 10.5485 2.26357 10.6276L2.26339 16.8156C2.30215 18.0156 2.53468 18.635 2.6897 19.0608C2.96098 19.6027 3.19351 19.9898 3.61981 20.4156C4.00736 20.8414 4.43366 21.1124 4.97622 21.3447C5.44128 21.4995 6.06135 21.7317 7.22399 21.7705C8.07927 21.7972 8.54746 21.8054 9.79808 21.808L10.4176 21.8088C10.4932 21.8089 10.5712 21.8089 10.6517 21.809L16.8739 21.8092C18.0753 21.7705 18.6954 21.5382 19.1217 21.3834C19.6642 21.1124 20.0518 20.8801 20.4781 20.4543C20.9044 20.0672 21.1757 19.6414 21.4082 19.0995C21.5632 18.635 21.7958 18.0156 21.8345 16.8543C21.8423 16.6066 21.85 16.3929 21.8575 16.1839L21.8648 15.9753C21.8912 15.2082 21.912 14.3717 21.912 12.0156L21.9117 10.3976C21.9117 10.3232 21.9116 10.2512 21.9115 10.1814L21.911 9.78768C21.9085 8.49381 21.9004 8.044 21.8733 7.17691C21.8345 5.97691 21.602 5.35755 21.447 4.93175C21.1757 4.38981 20.9432 4.00271 20.5168 3.57691C20.1293 3.18981 19.703 2.91884 19.1604 2.68659C18.6954 2.53175 18.0753 2.29949 16.9127 2.26078C16.6233 2.25175 16.3803 2.24482 16.137 2.23951L15.9273 2.23535C15.468 2.22713 14.9614 2.224 14.1079 2.2228ZM12.0296 5.86078C15.4787 5.86078 18.2303 8.57046 18.2303 12.0156C18.2303 15.4608 15.4012 18.1705 12.0296 18.1705C8.65792 18.1705 5.86758 15.4608 5.86758 12.0156C5.86758 8.64788 8.58041 5.86078 12.0296 5.86078ZM12.0296 7.98981C9.82056 7.98981 7.99909 9.80917 7.99909 12.0156C7.99909 14.2221 9.7818 16.0414 12.0296 16.0414C14.2773 16.0414 16.0601 14.2608 16.0601 12.0156C16.0601 9.77046 14.2773 7.98981 12.0296 7.98981ZM18.5016 4.15755C19.2935 4.15755 19.9355 4.7988 19.9355 5.58981C19.9355 6.38083 19.2935 7.02207 18.5016 7.02207C17.7097 7.02207 17.0677 6.38083 17.0677 5.58981C17.0677 4.7988 17.7097 4.15755 18.5016 4.15755Z" fill="white"/>
</svg>
