<svg width="25" height="25" viewBox="0 0 25 25" fill="none" xmlns="http://www.w3.org/2000/svg">
<path d="M22.338 0.015625H1.76564C0.793409 0.015625 0.015625 0.789819 0.015625 1.75756V22.2737C0.015625 23.2027 0.793409 24.0156 1.76564 24.0156H22.2602C23.2325 24.0156 24.0103 23.2414 24.0103 22.2737V1.71885C24.088 0.789819 23.3103 0.015625 22.338 0.015625ZM7.13235 20.4156H3.59343V8.99627H7.13235V20.4156ZM5.34344 7.40917C4.17677 7.40917 3.28232 6.48014 3.28232 5.35756C3.28232 4.23498 4.21566 3.30595 5.34344 3.30595C6.47123 3.30595 7.40457 4.23498 7.40457 5.35756C7.40457 6.48014 6.54901 7.40917 5.34344 7.40917ZM20.5491 20.4156H17.0102V14.8801C17.0102 13.564 16.9713 11.8221 15.1435 11.8221C13.2768 11.8221 13.0046 13.293 13.0046 14.764V20.4156H9.4657V8.99627H12.9268V10.5834H12.9657C13.4713 9.65434 14.5991 8.7253 16.3491 8.7253C19.9658 8.7253 20.6269 11.0479 20.6269 14.2221V20.4156H20.5491Z" fill="white"/>
</svg>
