<svg width="25" height="21" viewBox="0 0 25 21" fill="none" xmlns="http://www.w3.org/2000/svg">
<path d="M7.48659 20.1801C16.6221 20.1801 21.5769 12.6318 21.5769 6.08982C21.5769 5.93498 21.5769 5.66401 21.5382 5.43175C22.5059 4.73498 23.3576 3.84466 24.0156 2.87692C23.0866 3.30272 22.1576 3.53498 21.1898 3.65111C22.235 3.03175 23.0092 2.06401 23.3576 0.902722C22.3898 1.44466 21.3834 1.87046 20.1834 2.10272C19.2543 1.13498 18.0156 0.515625 16.5834 0.515625C13.835 0.515625 11.5898 2.76079 11.5898 5.50917C11.5898 5.89627 11.6285 6.28337 11.7059 6.67046C7.71885 6.3995 4.08014 4.4253 1.60272 1.44466C1.17692 2.21885 0.944657 3.03175 0.944657 3.92208C0.944657 5.66401 1.83498 7.13498 3.18982 8.0253C2.37692 7.98659 1.60272 7.75433 0.944657 7.40595C0.944657 7.44466 0.944657 7.44466 0.944657 7.44466C0.944657 9.80595 2.64788 11.8576 4.89304 12.3221C4.46724 12.4382 4.00272 12.4769 3.65433 12.4769C3.34466 12.4769 2.99627 12.4382 2.7253 12.3608C3.38337 14.335 5.20272 15.7672 7.37046 15.8059C5.66724 17.1221 3.53821 17.935 1.25433 17.935C0.789819 18.0124 0.402722 17.935 0.015625 17.8963C2.10595 19.3672 4.6995 20.1801 7.48659 20.1801Z" fill="white"/>
</svg>
