<svg width="92" height="96" viewBox="0 0 92 96" fill="none" xmlns="http://www.w3.org/2000/svg">
<path d="M18.5437 4.18945C12.9375 9.91865 12.9375 15.9343 18.5437 21.6635C20.8437 23.9552 24.2937 25.8172 26.3062 25.8172C28.175 25.8172 30.9062 27.1063 32.3438 28.6818C34.9312 31.5464 34.9312 31.6896 31.625 35.1272C28.4625 38.4214 27.3125 38.7079 14.0875 38.7079H0V64.4893V90.2708H46H92V64.4893V38.7079H77.9125C64.6875 38.7079 63.5375 38.4214 60.375 35.1272C57.0688 31.6896 57.0688 31.5464 59.6562 28.6818C61.0938 27.1063 63.825 25.8172 65.6937 25.8172C70.8687 25.8172 77.625 18.5125 77.625 12.9265C77.625 6.76759 70.8688 0.0357742 64.6875 0.0357742C59.0813 0.0357742 51.75 6.76759 51.75 11.9239C51.75 13.7859 50.4562 16.5072 48.875 17.9395C46.1437 20.3744 45.8563 20.3744 43.125 17.9395C41.5438 16.5072 40.25 13.7859 40.25 11.9239C40.25 9.91865 38.3812 6.48113 36.0812 4.18945C30.3312 -1.39653 24.2937 -1.39653 18.5437 4.18945ZM34.0687 6.05144C35.9375 7.7702 37.375 10.778 37.375 12.7833C37.375 15.5046 41.8313 20.9474 55.3438 34.411C72.8813 52.1715 73.3125 52.7445 73.3125 58.9034V65.2055L52.0375 44.0074C36.5125 28.5386 29.9 22.9526 27.4562 22.9526C22.7125 22.9526 17.25 17.6531 17.25 13.0697C17.25 8.34312 22.5687 2.90038 27.1687 2.90038C29.0375 2.90038 32.2 4.33268 34.0687 6.05144ZM71.4437 6.05144C73.3125 7.7702 74.75 10.778 74.75 12.7833C74.75 17.5099 69.4312 22.9526 64.8312 22.9526C62.9625 22.9526 59.8 24.3849 57.9312 26.1037L54.625 29.2547L51.4625 26.1037L48.3 22.9526L51.4625 19.6583C53.1875 17.7963 54.625 14.7885 54.625 12.9265C54.625 8.34312 59.9437 2.90038 64.5437 2.90038C66.4125 2.90038 69.575 4.33268 71.4437 6.05144ZM40.25 36.5595C41.8312 38.4214 41.4 38.7079 37.375 38.7079C33.35 38.7079 32.9188 38.4214 34.5 36.5595C35.5063 35.4136 36.8 34.411 37.375 34.411C37.95 34.411 39.2437 35.4136 40.25 36.5595ZM60.5187 56.8981L76.1875 72.2238V63.2003C76.1875 53.8903 74.8937 50.1663 70.0062 44.7236L67.1312 41.5725H78.0563H89.125V64.4893V87.4061H46H2.875V64.4893V41.5725H23.8625H44.9937L60.5187 56.8981Z" fill="#45525b"/>
<path d="M22.425 8.05632C17.9688 12.3532 21.1312 20.0876 27.3125 20.0876C30.7625 20.0876 34.5 16.3637 34.5 12.9261C34.5 9.48862 30.7625 5.76463 27.3125 5.76463C25.875 5.76463 23.575 6.76724 22.425 8.05632ZM30.9062 12.9261C30.9062 15.5043 30.0437 16.6501 27.6 16.9366C24.15 17.5095 22.1375 14.3584 23.575 10.6345C24.0062 9.34539 25.7312 8.62924 27.6 8.9157C30.0437 9.20216 30.9062 10.348 30.9062 12.9261Z" fill="#45525b"/>
<path d="M44.5625 30.1138C44.5625 30.83 45.2812 31.5461 46 31.5461C46.8625 31.5461 47.4375 30.83 47.4375 30.1138C47.4375 29.2545 46.8625 28.6815 46 28.6815C45.2812 28.6815 44.5625 29.2545 44.5625 30.1138Z" fill="#45525b"/>
<path d="M59.8 8.05628C58.5063 9.20212 57.5 11.4938 57.5 12.9261C57.5 19.085 65.2625 22.2361 69.575 17.7959C74.0312 13.499 70.8688 5.7646 64.6875 5.7646C63.25 5.7646 60.95 6.76721 59.8 8.05628ZM68.2812 12.9261C68.2812 15.5042 67.4187 16.6501 64.975 16.9366C61.525 17.5095 59.5125 14.3584 60.95 10.6344C61.3812 9.34535 63.1062 8.6292 64.975 8.91566C67.4187 9.20212 68.2812 10.348 68.2812 12.9261Z" fill="#45525b"/>
<path d="M44.5625 47.3016C44.5625 48.0177 45.2812 48.7339 46 48.7339C46.8625 48.7339 47.4375 48.0177 47.4375 47.3016C47.4375 46.4422 46.8625 45.8693 46 45.8693C45.2812 45.8693 44.5625 46.4422 44.5625 47.3016Z" fill="#45525b"/>
<path d="M38.9562 52.1712C26.45 59.0463 31.7687 78.812 46 78.812C53.3312 78.812 60.375 71.7937 60.375 64.6322C60.375 53.89 48.4437 46.8717 38.9562 52.1712ZM53.9062 56.6113C61.0937 63.6296 56.0625 75.9474 46 75.9474C40.1062 75.9474 34.5 70.3614 34.5 64.489C34.5 61.7676 35.7937 58.7598 38.0937 56.6113C40.25 54.3197 43.2687 53.0306 46 53.0306C48.7312 53.0306 51.75 54.3197 53.9062 56.6113Z" fill="#45525b"/>
<path d="M44.5625 55.8953C44.5625 56.6115 45.2812 57.3276 46 57.3276C46.8625 57.3276 47.4375 56.6115 47.4375 55.8953C47.4375 55.036 46.8625 54.463 46 54.463C45.2812 54.463 44.5625 55.036 44.5625 55.8953Z" fill="#45525b"/>
<path d="M44.5625 61.6243C44.5625 62.3405 45.2812 63.0566 46 63.0566C46.8625 63.0566 47.4375 62.3405 47.4375 61.6243C47.4375 60.765 46.8625 60.192 46 60.192C45.2812 60.192 44.5625 60.765 44.5625 61.6243Z" fill="#45525b"/>
<path d="M44.5625 67.3541C44.5625 68.0702 45.2812 68.7864 46 68.7864C46.8625 68.7864 47.4375 68.0702 47.4375 67.3541C47.4375 66.4947 46.8625 65.9218 46 65.9218C45.2812 65.9218 44.5625 66.4947 44.5625 67.3541Z" fill="#45525b"/>
<path d="M44.5625 73.0831C44.5625 73.7992 45.2812 74.5154 46 74.5154C46.8625 74.5154 47.4375 73.7992 47.4375 73.0831C47.4375 72.2237 46.8625 71.6508 46 71.6508C45.2812 71.6508 44.5625 72.2237 44.5625 73.0831Z" fill="#45525b"/>
<path d="M14.375 45.8692C14.375 46.5854 15.0938 47.3015 15.8125 47.3015C16.675 47.3015 17.25 46.5854 17.25 45.8692C17.25 45.0098 16.675 44.4369 15.8125 44.4369C15.0938 44.4369 14.375 45.0098 14.375 45.8692Z" fill="#45525b"/>
<path d="M5.75 54.4632C5.75 55.1794 6.46875 55.8955 7.1875 55.8955C8.05 55.8955 8.625 55.1794 8.625 54.4632C8.625 53.6038 8.05 53.0309 7.1875 53.0309C6.46875 53.0309 5.75 53.6038 5.75 54.4632Z" fill="#45525b"/>
<path d="M10 53.432C10 54.1481 10.7188 54.8643 11.4375 54.8643C12.3 54.8643 12.875 54.1481 12.875 53.432C12.875 52.5726 12.3 51.9997 11.4375 51.9997C10.7188 51.9997 10 52.5726 10 53.432Z" fill="#45525b"/>
<path d="M13 50.432C13 51.1481 13.7188 51.8643 14.4375 51.8643C15.3 51.8643 15.875 51.1481 15.875 50.432C15.875 49.5726 15.3 48.9997 14.4375 48.9997C13.7188 48.9997 13 49.5726 13 50.432Z" fill="#45525b"/>
<path d="M6.51443 75.9719C7.27162 75.9858 8.04323 75.2637 8.05765 74.5276C8.07496 73.6443 7.32931 73.0416 6.57212 73.0276C5.6635 73.0109 5.04621 73.5887 5.0289 74.4719C5.01448 75.208 5.60581 75.9552 6.51443 75.9719Z" fill="#45525b"/>
<path d="M15.428 84.9719C16.1852 84.9858 16.9568 84.2637 16.9712 83.5276C16.9885 82.6443 16.2429 82.0416 15.4857 82.0276C14.5771 82.0109 13.9598 82.5887 13.9425 83.4719C13.9281 84.208 14.5194 84.9552 15.428 84.9719Z" fill="#45525b"/>
<path d="M14.4231 80.5996C15.1803 80.6135 15.9519 79.8914 15.9663 79.1553C15.9837 78.272 15.238 77.6693 14.4808 77.6553C13.5722 77.6386 12.9549 78.2164 12.9376 79.0996C12.9232 79.8357 13.5145 80.5829 14.4231 80.5996Z" fill="#45525b"/>
<path d="M11.3113 77.469C12.0685 77.4829 12.8401 76.7608 12.8545 76.0247C12.8718 75.1414 12.1262 74.5386 11.369 74.5247C10.4604 74.508 9.84308 75.0857 9.82578 75.969C9.81135 76.7051 10.4027 77.4523 11.3113 77.469Z" fill="#45525b"/>
<path d="M76.9722 84.4853C76.9861 83.7281 76.2639 82.9565 75.5279 82.9421C74.6446 82.9248 74.0418 83.6704 74.0279 84.4276C74.0112 85.3363 74.5889 85.9535 75.4722 85.9709C76.2083 85.9853 76.9555 85.3939 76.9722 84.4853Z" fill="#45525b"/>
<path d="M85.9722 75.5717C85.9861 74.8146 85.2639 74.043 84.5279 74.0285C83.6446 74.0112 83.0418 74.7569 83.0279 75.5141C83.0112 76.4227 83.5889 77.04 84.4722 77.0573C85.2083 77.0717 85.9555 76.4804 85.9722 75.5717Z" fill="#45525b"/>
<path d="M81.5998 76.5766C81.6138 75.8194 80.8916 75.0478 80.1556 75.0334C79.2723 75.0161 78.6695 75.7618 78.6556 76.5189C78.6389 77.4276 79.2166 78.0449 80.0999 78.0622C80.8359 78.0766 81.5831 77.4853 81.5998 76.5766Z" fill="#45525b"/>
<path d="M78.4692 79.6884C78.4832 78.9313 77.761 78.1596 77.0249 78.1452C76.1417 78.1279 75.5389 78.8736 75.525 79.6308C75.5083 80.5394 76.086 81.1567 76.9693 81.174C77.7053 81.1884 78.4525 80.5971 78.4692 79.6884Z" fill="#45525b"/>
<path d="M85.4858 53.0276C84.7286 53.0137 83.957 53.7358 83.9426 54.4719C83.9253 55.3552 84.6709 55.9579 85.4281 55.9719C86.3367 55.9886 86.954 55.4108 86.9713 54.5276C86.9858 53.7915 86.3944 53.0443 85.4858 53.0276Z" fill="#45525b"/>
<path d="M76.5722 44.0276C75.815 44.0137 75.0434 44.7358 75.029 45.4719C75.0117 46.3552 75.7574 46.9579 76.5145 46.9719C77.4232 46.9886 78.0405 46.4108 78.0578 45.5276C78.0722 44.7915 77.4809 44.0443 76.5722 44.0276Z" fill="#45525b"/>
<path d="M77.5771 48.3999C76.8199 48.386 76.0483 49.1081 76.0339 49.8442C76.0166 50.7275 76.7622 51.3303 77.5194 51.3442C78.4281 51.3609 79.0453 50.7832 79.0627 49.8999C79.0771 49.1638 78.4857 48.4166 77.5771 48.3999Z" fill="#45525b"/>
<path d="M80.6889 51.5305C79.9317 51.5166 79.1601 52.2388 79.1457 52.9748C79.1284 53.8581 79.8741 54.4609 80.6312 54.4748C81.5399 54.4915 82.1572 53.9138 82.1745 53.0305C82.1889 52.2944 81.5976 51.5472 80.6889 51.5305Z" fill="#45525b"/>
<path d="M15.8122 60.9083C13.656 63.4865 14.3747 67.3537 17.681 69.3589C22.5685 72.51 28.1747 65.4917 24.4372 60.9083C22.1372 58.1869 18.1122 58.1869 15.8122 60.9083ZM22.4247 63.2C23.8622 65.6349 20.556 68.3563 18.5435 66.3511C16.8185 64.6323 17.9685 61.6245 20.1247 61.6245C20.8435 61.6245 21.8497 62.3406 22.4247 63.2Z" fill="#45525b"/>
<path d="M44.5625 81.6768C44.5625 82.393 45.2812 83.1091 46 83.1091C46.8625 83.1091 47.4375 82.393 47.4375 81.6768C47.4375 80.8174 46.8625 80.2445 46 80.2445C45.2812 80.2445 44.5625 80.8174 44.5625 81.6768Z" fill="#45525b"/>
<path d="M44.5625 94.5675C44.5625 95.2836 45.2812 95.9998 46 95.9998C46.8625 95.9998 47.4375 95.2836 47.4375 94.5675C47.4375 93.7081 46.8625 93.1352 46 93.1352C45.2812 93.1352 44.5625 93.7081 44.5625 94.5675Z" fill="#45525b"/>
</svg>
