<svg width="83" height="73" viewBox="0 0 83 73" fill="none" xmlns="http://www.w3.org/2000/svg">
<path d="M20.9076 13.3395C9.63278 20.6891 0.309649 26.7585 0.186578 26.8388C0.0286052 26.9191 -0.0246644 27.6716 0.0102365 30.0094L0.0625877 33.0838L20.6964 19.6322C32.0419 12.25 41.4 6.19727 41.4872 6.19727C41.5745 6.19727 50.6873 12.0903 61.7518 19.2961C72.8154 26.4859 82.1211 32.5554 82.437 32.7477L83 33.1165L82.9825 30.0261V26.9358L62.2964 13.4833C50.916 6.08523 41.5754 0.0157606 41.5056 -0.000125885C41.4523 -0.0160123 32.1824 5.98907 20.9076 13.3395Z" fill="#45525b"/>
<path d="M23.4294 13.1328C13.2228 19.3257 4.76225 24.471 4.64705 24.5678C4.49379 24.6967 4.43569 31.2929 4.45572 48.018C4.45572 60.8231 4.45572 71.6939 4.47475 72.1453V73H42.0775H79.6802L79.6421 48.7759L79.584 24.5678L60.8778 13.2297C50.5951 6.98883 42.1346 1.89239 42.0775 1.89239C42.0194 1.89239 33.6359 6.95598 23.4294 13.1328ZM50.1153 25.8419C51.8222 26.0996 54.6621 26.8095 54.8154 27.0032C54.8915 27.1161 53.5683 32.0188 53.3188 32.6319C53.2617 32.7607 52.6857 32.6639 51.4386 32.3253C49.9801 31.922 49.2138 31.8251 47.3526 31.7451C43.7463 31.6323 41.8661 32.1157 39.7745 33.7611C38.6997 34.5999 37.5877 36.1317 37.1851 37.3089L37.0699 37.6795H44.6479H52.245V39.5346V41.3889H44.1871H36.1302V42.5982V43.8075H44.1881H52.246V45.5818V47.3561H44.5718C40.3515 47.3561 36.8976 47.3881 36.8976 47.4041C36.8976 47.6627 37.761 49.485 38.1257 50.0172C38.7207 50.8559 40.2553 52.0652 41.3102 52.5174C44.3223 53.8075 48.0628 53.9204 51.9384 52.8239C52.8781 52.5654 53.6654 52.3726 53.7035 52.4046C53.8567 52.5334 55.1229 57.7427 55.0468 57.9364C54.9126 58.2109 52.0927 59.0976 50.0592 59.485C47.8915 59.9044 43.8625 59.9364 41.6948 59.5658C35.6133 58.5174 30.759 55.2593 28.5532 50.7119C28.2076 49.986 27.8049 48.9376 27.6707 48.3734L27.4212 47.357H25.4448H23.4684V45.5826V43.8083H25.0993C26.6529 43.8083 26.7301 43.7923 26.7301 43.4378C26.7301 43.2441 26.7872 42.6959 26.8453 42.2285L26.9795 41.3898H25.2144H23.4684V39.5346V37.6963L25.5019 37.6475L27.5354 37.5995L28.0533 36.2933C31.1987 28.3902 39.8326 24.3101 50.1153 25.8419Z" fill="#45525b"/>
</svg>
