<svg width="48" height="60" viewBox="0 0 48 60" fill="none" xmlns="http://www.w3.org/2000/svg">
<path d="M10.1333 1.34297C0.933333 3.4763 0 5.20964 0 19.6096C0 33.8763 1.33333 39.6096 6.53333 47.2096C11.2 54.0096 21.3333 60.543 25.8667 59.343C31.4667 57.8763 40.2667 50.143 43.8667 43.2096C46.8 37.4763 47.3333 34.543 47.7333 22.143C48.1333 10.0096 47.8667 7.34297 46 5.20964C41.7333 0.54297 22.5333 -1.59036 10.1333 1.34297ZM41.7333 5.20964C45.3333 6.94297 45.3333 7.0763 45.3333 20.543C45.3333 32.4096 44.9333 34.8096 41.8667 40.943C38.8 47.0763 30.5333 55.8763 27.7333 55.8763C27.0667 55.8763 26.6667 54.0096 26.6667 51.8763C26.6667 48.8096 26.1333 47.8763 24 47.8763C21.8667 47.8763 21.3333 48.8096 21.3333 51.8763C21.3333 54.0096 20.9333 55.8763 20.2667 55.8763C17.4667 55.8763 9.2 47.0763 6.13333 40.943C3.06667 34.8096 2.66667 32.4096 2.66667 20.4096V6.80964L6.4 5.4763C8.4 4.6763 11.2 3.74297 12.6667 3.34297C17.4667 2.14297 37.8667 3.4763 41.7333 5.20964Z" fill="#45525b"/>
<path d="M8.53339 13.8763C6.13339 15.743 6.26672 15.743 10.2667 15.0763C13.6001 14.4096 14.8001 14.8096 16.2667 17.0763C18.2667 20.2763 21.3334 20.8096 21.3334 18.0096C21.3334 15.6096 16.2667 11.8763 13.3334 11.8763C12.1334 11.8763 10.0001 12.8096 8.53339 13.8763Z" fill="#45525b"/>
<path d="M29.6001 14.0096C26.4001 16.1429 25.6001 19.8762 28.4001 19.8762C29.3334 19.8762 30.8001 18.6762 31.7334 17.0762C33.2001 14.8096 34.4001 14.4096 37.7334 15.0762C41.7334 15.7429 41.8667 15.7429 39.4667 13.8762C36.1334 11.3429 33.3334 11.3429 29.6001 14.0096Z" fill="#45525b"/>
<path d="M8.13338 21.0762C5.60005 22.6762 10.9334 24.4095 14.8 23.2095C17.0667 22.4095 17.3334 22.0095 15.8667 21.0762C14.8 20.4095 13.0667 19.8762 12 19.8762C10.9334 19.8762 9.20005 20.4095 8.13338 21.0762Z" fill="#45525b"/>
<path d="M32.1334 21.0762C29.6 22.6762 34.9334 24.4095 38.8 23.2095C41.0667 22.4095 41.3334 22.0095 39.8667 21.0762C38.8 20.4095 37.0667 19.8762 36 19.8762C34.9334 19.8762 33.2 20.4095 32.1334 21.0762Z" fill="#45525b"/>
<path d="M8.79997 37.2096C11.0666 41.0763 12.2666 42.0096 16.5333 42.2763C19.7333 42.5429 22.1333 42.0096 22.8 40.9429C23.8666 39.4763 24.1333 39.4763 25.2 40.9429C25.8666 42.0096 28.2666 42.5429 31.4666 42.2763C35.7333 42.0096 36.9333 41.0763 39.2 37.2096L41.8666 32.543L38.5333 35.4763C34.6666 38.9429 30.4 39.4763 28 36.5429C27.0666 35.4763 25.3333 34.5429 24 34.5429C22.6666 34.5429 20.9333 35.4763 20 36.5429C17.6 39.4763 13.3333 38.9429 9.46663 35.4763L6.1333 32.543L8.79997 37.2096Z" fill="#45525b"/>
</svg>
