<svg width="112" height="113" viewBox="0 0 112 113" fill="none" xmlns="http://www.w3.org/2000/svg">
<path d="M6.8 1.99991C0.266667 5.59991 0.133333 6.93325 0 55.8666C0 105.467 0.266667 107.333 7.33333 110.533C12.8 113.067 100.267 112.8 105.2 110.267C111.733 106.8 112 104.8 112 56.1333C112 7.46658 111.733 5.46658 105.2 1.99991C100 -0.666754 11.6 -0.666754 6.8 1.99991ZM42 21.9999C45.7333 25.7332 48 33.0666 48 41.4666C48 55.3332 42.8 63.1999 33.4667 63.1999C23.6 63.1999 19.4667 56.5332 19.4667 40.7999C19.4667 24.9332 23.3333 18.9332 33.7333 18.7999C37.3333 18.7999 39.7333 19.7332 42 21.9999ZM74.4 29.1999C71.2 34.9332 62.1333 51.7333 54 66.5333C40.4 91.4666 39.0667 93.4666 35.6 93.4666H32L37.6 83.0666C40.8 77.3333 50 60.5333 58 45.7333C71.6 20.7999 72.9333 18.7999 76.4 18.7999H80L74.4 29.1999ZM86.5333 51.3333C92.2667 55.8666 94.9333 70.9333 92 81.7333C89.8667 88.9333 86.6667 92.2666 80.5333 93.0666C76.1333 93.5999 74.5333 93.1999 71.0667 90.2666C60.4 81.3333 62.9333 52.5333 74.6667 49.3333C78.5333 48.2666 83.8667 49.1999 86.5333 51.3333Z" fill="#45525b"/>
<path d="M27.8667 28.2665C25.4667 32.9332 24.9334 45.5998 26.9334 51.4665C28.4 56.1332 29.2 56.7998 33.0667 57.1998C36.9334 57.5998 37.6 57.0665 39.3334 52.9332C41.8667 46.9332 41.8667 35.9998 39.4667 30.1332C37.8667 26.2665 36.8 25.4665 33.4667 25.4665C30.6667 25.4665 28.9334 26.3998 27.8667 28.2665Z" fill="#45525b"/>
<path d="M74.1333 57.3335C69.0667 62.9335 70.4 83.7335 76 86.8001C82.1333 90.1335 86.6667 83.6001 86.6667 71.4668C86.6667 57.3335 80.4 50.2668 74.1333 57.3335Z" fill="#45525b"/>
</svg>
