<svg xmlns="http://www.w3.org/2000/svg" width="93" height="81" fill="none"><g fill="#45525b" clip-path="url(#a)"><path fill-rule="evenodd" d="M79 0a2 2 0 0 1 2 2v.525c2.476.5 4.91 1.78 6.492 3.555a2 2 0 0 1-2.984 2.662C83.7 7.837 82.4 7.068 81 6.645v7.609c1.356.425 2.902.973 4.156 1.867C86.851 17.331 88 19.147 88 21.795c0 2.802-1.098 5.001-2.921 6.432-1.196.939-2.618 1.481-4.079 1.706V30a2 2 0 0 1-4 0v-.193c-2.588-.542-5.114-1.971-6.662-4.284a2 2 0 0 1 3.324-2.225c.729 1.09 1.945 1.924 3.338 2.378v-8.497c-1.028-.368-2.084-.833-2.99-1.479-1.695-1.21-2.843-3.025-2.843-5.674 0-2.586.855-4.654 2.468-6.023C74.629 3.159 75.8 2.675 77 2.45V2a2 2 0 0 1 2-2Zm-2 6.593a2.825 2.825 0 0 0-.777.46c-.534.453-1.056 1.297-1.056 2.973 0 1.275.455 1.91 1.166 2.418.203.144.425.277.667.401V6.593Zm4 11.883v7.378c.626-.167 1.172-.43 1.61-.773.78-.613 1.39-1.613 1.39-3.286 0-1.274-.456-1.91-1.167-2.417-.492-.351-1.1-.633-1.833-.902Z" clip-rule="evenodd"/><path d="M52.4 6.6c-5.067 2.533-6.633 4.7-2.9 5.9 1.467.4 2.9 1.2 2.9 2 0 .667-3.067 4.767-8 9.7-9.333 9.2-22.667 17.2-33.333 20-3.2.933-5.734 2.133-5.734 2.933 0 2.933 19.067-4.267 29.867-11.467C42.533 30.733 55 18.534 55 16c0-.8.067-.334 1 .067 6.933 2.8 7.067 2.266 6-2.534C60 3.133 59.733 3 52.4 6.6ZM49.333 57.667v20h-6.666V51h-16v26.667h-3.334C20.133 77.667 20 77.4 20 69v-8.666H4V69c0 6.8-.9 8.5-2.5 8.5-1.067 0-.5 1.2-.5 2s15.4.834 45.667.834C76.933 80.334 92 80.3 92 79.5c0-.8.467-2-1-2-2.533 0-3-.766-3-19.833v-20H72v40h-6.667v-40h-16v20Zm13.334-14.8c0 1.467-.8 2.933-1.6 3.333-1.334.667-1.334.933 0 1.6.8.4 1.6 1.867 1.6 3.2 0 1.334-.8 2.8-1.6 3.2-1.334.667-1.334.933 0 1.6.8.4 1.6 1.867 1.6 3.2 0 1.334-.8 2.8-1.6 3.2-1.334.667-1.334.933 0 1.6.8.4 1.6 1.867 1.6 3.2 0 1.334-.8 2.8-1.6 3.2-1.334.667-1.334.933 0 1.6.8.4 1.6 1.867 1.6 3.334 0 2.133-.934 2.533-5.334 2.533-4.4 0-5.333-.4-5.333-2.534 0-1.466.8-2.933 1.733-3.333 1.334-.666 1.334-.933 0-1.6C52.8 69.8 52 68.333 52 67c0-1.333.8-2.8 1.733-3.2 1.334-.666 1.334-.933 0-1.6C52.8 61.8 52 60.333 52 59c0-1.333.8-2.8 1.733-3.2 1.334-.666 1.334-.933 0-1.6C52.8 53.8 52 52.333 52 51c0-1.333.8-2.8 1.733-3.2 1.334-.666 1.334-.933 0-1.6C52.8 45.8 52 44.333 52 42.867c0-2.133.933-2.533 5.333-2.533s5.334.4 5.334 2.533ZM85.333 59v18.667H74.667V40.334h10.666V59ZM40 65.667v12H29.333v-24H40v12ZM15.733 63.8c2.534.934 2.534 5.134.267 6.2-.8 1-.267.5-.267 1.8.8.4 1.6 1.867 1.6 3.334 0 2.133-.933 2.533-5.333 2.533s-5.333-.4-5.333-2.534c0-1.466.8-2.933 1.733-3.333 1.333-.666 1.333-.933 0-1.6-.933-.4-1.733-1.867-1.733-3.2 0-3.333 4.666-4.933 9.066-3.2Z"/><path d="M56 43.333c0 .667.667 1.334 1.333 1.334.8 0 1.334-.667 1.334-1.334 0-.8-.534-1.333-1.334-1.333-.666 0-1.333.533-1.333 1.333ZM60 47.333c0 .667.667 1.334 1.333 1.334.8 0 1.334-.667 1.334-1.334 0-.8-.534-1.333-1.334-1.333-.666 0-1.333.533-1.333 1.333ZM60 55.333c0 .667.667 1.334 1.333 1.334.8 0 1.334-.667 1.334-1.334 0-.8-.534-1.333-1.334-1.333-.666 0-1.333.533-1.333 1.333ZM60 63.333c0 .667.667 1.334 1.333 1.334.8 0 1.334-.667 1.334-1.334 0-.8-.534-1.333-1.334-1.333-.666 0-1.333.533-1.333 1.333ZM60 71.333c0 .667.667 1.334 1.333 1.334.8 0 1.334-.667 1.334-1.334 0-.8-.534-1.333-1.334-1.333-.666 0-1.333.533-1.333 1.333ZM52 47.333c0 .667.667 1.334 1.333 1.334.8 0 1.334-.667 1.334-1.334 0-.8-.534-1.333-1.334-1.333-.666 0-1.333.533-1.333 1.333ZM52 55.333c0 .667.667 1.334 1.333 1.334.8 0 1.334-.667 1.334-1.334 0-.8-.534-1.333-1.334-1.333-.666 0-1.333.533-1.333 1.333ZM52 63.333c0 .667.667 1.334 1.333 1.334.8 0 1.334-.667 1.334-1.334 0-.8-.534-1.333-1.334-1.333-.666 0-1.333.533-1.333 1.333ZM52 71.333c0 .667.667 1.334 1.333 1.334.8 0 1.334-.667 1.334-1.334 0-.8-.534-1.333-1.334-1.333-.666 0-1.333.533-1.333 1.333ZM56 51c0 .667.667 1.333 1.333 1.333.8 0 1.334-.666 1.334-1.333 0-.8-.534-1.333-1.334-1.333C56.667 49.667 56 50.2 56 51ZM56 59c0 .667.667 1.333 1.333 1.333.8 0 1.334-.666 1.334-1.333 0-.8-.534-1.333-1.334-1.333C56.667 57.667 56 58.2 56 59ZM56 67c0 .667.667 1.333 1.333 1.333.8 0 1.334-.666 1.334-1.333 0-.8-.534-1.333-1.334-1.333C56.667 65.667 56 66.2 56 67ZM15 71.333c0 .667.667 1.334 1.333 1.334.8 0 1.334-.667 1.334-1.334 0-.8-.534-1.333-1.334-1.333-.666 0-1.333.533-1.333 1.333ZM7 71.5c0 .75.75 1.5 1.5 1.5.9 0 1.5-.75 1.5-1.5 0-.9-.6-1.5-1.5-1.5-.75 0-1.5.6-1.5 1.5ZM56 75c0 .667.667 1.333 1.333 1.333.8 0 1.334-.666 1.334-1.333 0-.8-.534-1.333-1.334-1.333C56.667 73.667 56 74.2 56 75ZM10.667 67c0 .667.666 1.333 1.333 1.333.8 0 1.333-.666 1.333-1.333 0-.8-.533-1.333-1.333-1.333-.667 0-1.333.533-1.333 1.333ZM10.667 75c0 .667.666 1.333 1.333 1.333.8 0 1.333-.666 1.333-1.333 0-.8-.533-1.333-1.333-1.333-.667 0-1.333.533-1.333 1.333Z"/></g><defs><clipPath id="a"><path fill="#fff" d="M0 0h93v81H0z"/></clipPath></defs></svg>