<svg width="197" height="29" viewBox="0 0 197 29" fill="none" xmlns="http://www.w3.org/2000/svg">
<path d="M163.737 0.177416C163.687 0.277571 163.737 0.461189 163.871 0.59473C164.088 0.811733 164.138 0.811733 164.321 0.59473C164.438 0.461189 164.488 0.260879 164.422 0.160724C164.288 -0.0562792 163.887 -0.0562795 163.737 0.177416ZM179.495 0.260879C178.877 0.52796 178.61 0.878503 178.794 1.19566C178.844 1.27912 179.078 1.19566 179.311 0.961967C179.812 0.494575 180.88 0.444497 181.314 0.86181C181.682 1.24574 181.665 2.08037 181.248 2.63122C181.064 2.88161 180.43 3.44916 179.812 3.91655C179.211 4.36725 178.71 4.88471 178.71 5.03495C178.694 5.30203 178.877 5.33541 180.446 5.33541C181.899 5.33541 182.199 5.28534 182.199 5.08502C182.199 4.88471 181.932 4.83464 180.847 4.83464H179.495L180.313 4.20032C181.648 3.132 182.199 2.41422 182.199 1.69644C182.199 0.878503 181.832 0.377727 181.064 0.160724C180.296 -0.0395867 180.246 -0.039587 179.495 0.260879ZM184.419 0.177416C183.568 0.427804 183.134 1.21235 183.067 2.58114C183 4.03339 183.334 4.78456 184.252 5.23526C185.922 6.0365 187.407 4.51748 187.14 2.26398C186.957 0.644807 185.805 -0.239897 184.419 0.177416ZM185.621 0.694885C186.239 0.978658 186.539 1.66305 186.539 2.78145C186.539 4.38394 185.654 5.33541 184.62 4.86802C183.935 4.55086 183.618 3.86647 183.635 2.73138C183.635 1.59628 183.969 0.911888 184.586 0.6615C185.087 0.46119 185.12 0.461189 185.621 0.694885ZM189.46 0.110646C187.491 0.59473 187.34 4.60094 189.26 5.31872C190.111 5.63588 191.063 5.35211 191.564 4.63433C192.348 3.54931 192.098 1.06212 191.163 0.444497C190.712 0.160723 189.911 -0.00620212 189.46 0.110646ZM190.913 0.945273C191.313 1.29582 191.547 2.59784 191.38 3.49923C191.08 5.11841 189.494 5.53572 188.793 4.16693C188.459 3.53262 188.476 1.94683 188.809 1.31251C189.227 0.494575 190.212 0.310956 190.913 0.945273ZM193.35 0.260879C192.749 0.511267 192.465 0.878503 192.632 1.16228C192.682 1.24574 192.999 1.12889 193.35 0.895196C194.351 0.210802 195.436 0.611423 195.436 1.66305C195.436 2.34745 195.002 2.91499 193.667 3.91655C193.066 4.38394 192.565 4.88472 192.565 5.05164C192.549 5.31872 192.715 5.33541 194.335 5.30203C195.536 5.26864 196.137 5.18518 196.171 5.05164C196.221 4.90141 195.854 4.83464 194.869 4.80125L193.5 4.75117L194.418 4.00001C195.587 3.04853 196.054 2.38083 196.054 1.64636C196.054 0.878504 195.67 0.377727 194.919 0.160724C194.151 -0.0395867 194.101 -0.039587 193.35 0.260879ZM160.349 1.71313C159.113 2.33076 159.681 3.66616 161.167 3.66616C161.934 3.66616 162.502 3.94993 162.502 4.33386C162.502 4.86802 161.767 5.06833 160.699 4.83464C160.198 4.73448 159.764 4.6844 159.714 4.71779C159.514 4.9181 159.881 5.15179 160.666 5.31872C162.101 5.61919 163.303 4.95149 163.036 3.96662C162.936 3.566 162.068 3.16538 161.283 3.16538C160.516 3.16538 160.015 2.78145 160.265 2.38083C160.415 2.16383 160.666 2.08037 161.267 2.08037C161.717 2.08037 162.252 2.14714 162.469 2.21391C162.736 2.31406 162.836 2.29737 162.836 2.11375C162.836 1.59628 161.116 1.31251 160.349 1.71313ZM166.258 1.64636C165.473 1.98021 165.273 2.4476 165.256 3.88316C165.256 5.05164 165.306 5.25195 165.557 5.30203C165.807 5.35211 165.84 5.20187 165.84 4.0167C165.84 2.48099 166.124 1.9969 167.009 1.9969C167.894 1.9969 168.177 2.48099 168.177 4.00001C168.177 5.06833 168.227 5.33541 168.428 5.33541C168.628 5.33541 168.678 5.06833 168.678 3.86647C168.678 2.51437 168.645 2.34745 168.278 2.0136C167.844 1.59628 166.792 1.41267 166.258 1.64636ZM170.581 1.66305C169.93 1.91344 169.513 2.64791 169.513 3.49923C169.513 4.48409 169.947 5.10172 170.815 5.33541C171.599 5.53572 172.718 5.28534 172.584 4.9181C172.517 4.73448 172.384 4.71779 172.05 4.85133C170.965 5.26864 169.913 4.41732 170.064 3.24884C170.214 2.13044 171.182 1.71313 172.401 2.2306C172.601 2.33075 172.684 2.29737 172.684 2.09706C172.684 1.59628 171.399 1.3292 170.581 1.66305ZM173.903 1.82998C173.219 2.2306 173.018 2.63122 173.018 3.54931C173.018 4.48409 173.469 5.10172 174.32 5.33541C175.088 5.53572 176.19 5.28533 176.19 4.90141C176.19 4.7011 176.09 4.6844 175.823 4.78456C175.038 5.05164 174.32 4.9181 173.886 4.40063L173.469 3.91655L174.537 3.81639C175.806 3.71624 176.323 3.46585 176.457 2.93169C176.741 1.76321 175.138 1.06212 173.903 1.82998ZM175.589 2.09706C175.956 2.24729 175.923 2.94838 175.539 3.16538C175.205 3.33231 173.519 3.39908 173.519 3.24884C173.519 3.01515 174.036 2.18052 174.22 2.11375C174.537 1.98021 175.288 1.98021 175.589 2.09706ZM163.837 3.49923C163.837 5.01826 163.887 5.33541 164.088 5.33541C164.288 5.33541 164.338 5.01826 164.338 3.49923C164.338 1.98021 164.288 1.66305 164.088 1.66305C163.887 1.66305 163.837 1.98021 163.837 3.49923ZM72.3622 13.014V23.0295H74.165L74.2318 18.4724C74.2818 14.1157 74.2985 13.8987 74.6824 13.0474C75.1999 11.9123 76.5854 10.627 77.7205 10.2597C79.6735 9.6087 81.4596 10.243 82.3276 11.8956L82.795 12.7636L82.8451 17.8882L82.8952 23.0295H84.8816V20.1417C84.8649 18.5726 84.7981 16.1188 84.7147 14.7333C84.5978 12.5967 84.5144 12.0458 84.1638 11.3113C83.6297 10.1095 83.0788 9.50855 82.0105 8.92431C81.1925 8.45692 80.9922 8.42353 79.4565 8.42353C77.9542 8.42353 77.6871 8.47361 76.8692 8.89093C76.3684 9.15801 75.5672 9.72555 75.1165 10.1929C74.6491 10.6436 74.2151 11.0109 74.1483 11.0109C74.0815 11.0109 74.0314 9.20808 74.0314 7.00467V2.99846H72.3622V13.014ZM35.6386 13.0974V23.0295H37.4748V3.16538H35.6386V13.0974ZM58.8412 13.0974V23.0295H60.6774L60.7108 19.8746L60.7609 16.7364L63.849 19.5408C65.5516 21.0932 67.1708 22.512 67.4379 22.6957C67.8218 22.946 68.2224 23.0295 69.1572 23.0295H70.3758L66.3195 19.3405C64.0827 17.3207 62.2632 15.5846 62.2632 15.5179C62.2632 15.4511 63.9158 13.9321 65.9356 12.1794C67.9554 10.4099 69.6413 8.89092 69.658 8.82415C69.7415 8.59046 67.488 8.65723 67.0706 8.89093C66.8703 9.00777 65.3513 10.2764 63.6988 11.712C62.0295 13.1642 60.644 14.3494 60.5939 14.3494C60.5439 14.3494 60.5105 11.8288 60.5105 8.75739V3.16538H58.8412V13.0974ZM23.887 8.35676C19.8975 8.92431 17.0431 12.9639 17.7442 17.0536C18.3284 20.4756 20.6487 22.8626 23.9204 23.3801C26.9585 23.8808 30.3137 22.2617 31.6324 19.691L31.9328 19.0901L31.1817 18.6894L30.4138 18.2888L30.1467 18.6894C28.7946 20.7927 26.7248 21.861 24.4212 21.644C21.934 21.427 19.9142 19.4406 19.6638 16.9367L19.5637 16.0186H25.9402C31.4488 16.0186 32.3168 15.9853 32.4002 15.7683C32.467 15.6347 32.4169 15.0505 32.3168 14.4829C31.599 10.4099 27.9767 7.78922 23.887 8.35676ZM27.0085 10.4433C28.394 10.9107 29.863 12.4965 30.1968 13.882L30.297 14.3494H19.7974L19.9309 13.882C20.4317 12.1794 21.7504 10.844 23.453 10.3265C24.2042 10.1095 26.2073 10.1596 27.0085 10.4433ZM5.35831 8.69062C4.20652 9.09124 3.8059 9.32493 2.63742 10.3098L1.75272 11.0443V8.65723L0.884705 8.70731L0 8.75739V28.2877H1.83618L1.88626 24.5819L1.91964 20.8595L2.95458 21.6941C4.32337 22.7958 5.47515 23.2298 7.27795 23.33C8.46312 23.3801 8.93051 23.33 9.79852 23.0462C14.2554 21.5606 16.2418 16.3358 13.9717 12.1126C12.3525 9.14131 8.5132 7.6056 5.35831 8.69062ZM9.8486 10.7104C10.967 11.2947 11.9852 12.3797 12.5361 13.5648C13.0703 14.7667 13.1537 16.486 12.703 17.7714C11.618 21.0097 7.89557 22.5788 4.85753 21.0932C3.73913 20.5423 2.9212 19.7244 2.30357 18.5225C1.88626 17.7046 1.83618 17.4375 1.83618 15.9352C1.83618 13.9822 2.11995 13.1809 3.27174 11.929C4.50699 10.5936 5.592 10.1596 7.59511 10.243C8.7302 10.2764 9.1809 10.3766 9.8486 10.7104ZM45.5707 8.67392C40.9468 10.1429 39.0773 15.9185 41.8315 20.2252C43.651 23.0629 47.3401 24.2147 50.6452 22.9961C52.2477 22.3952 53.5497 21.3269 54.4845 19.8078C54.8684 19.1902 54.8684 19.1568 54.5679 18.9398C54.184 18.6561 53.3327 18.2888 53.2826 18.3723C53.2492 18.4057 52.9488 18.823 52.6149 19.2904C51.4464 20.9096 50.0776 21.594 47.9076 21.594C46.639 21.6106 46.2717 21.5439 45.5873 21.21C43.9515 20.4088 42.7997 18.7729 42.5493 16.8867L42.4325 16.0186H55.3358V15.5179C55.3358 12.5132 53.0489 9.44178 50.1778 8.60715C48.9425 8.23992 46.8393 8.2733 45.5707 8.67392ZM50.3948 10.6603C51.7636 11.328 52.7484 12.5132 53.0823 13.882L53.1991 14.3494H48.0078C42.2488 14.3494 42.566 14.4162 43.0668 13.231C43.6176 11.929 44.6859 10.9274 46.1048 10.4099C47.1231 10.026 49.3932 10.1763 50.3948 10.6603ZM100.74 8.64054C98.9534 9.24147 97.835 10.0928 96.8668 11.5784C95.1809 14.1825 95.1308 17.521 96.7333 20.0249C97.5012 21.2267 98.9033 22.4453 99.9883 22.8459C102.876 23.9309 105.514 23.4635 107.667 21.4938L108.585 20.6592V23.0295H110.421V8.67392H108.585V11.0443L107.717 10.243C107.233 9.80902 106.348 9.22478 105.747 8.941C104.345 8.28999 102.192 8.15645 100.74 8.64054ZM105.163 10.5268C108.852 11.9123 109.854 17.1704 106.966 20.0916C105.914 21.1599 104.762 21.6106 103.076 21.594C101.841 21.594 101.524 21.5272 100.689 21.1099C99.521 20.5256 98.5194 19.4907 97.9352 18.2221C97.3342 16.9534 97.3008 14.8502 97.8517 13.6483C98.5528 12.0959 99.738 10.9608 101.207 10.4266C102.175 10.0761 104.078 10.1095 105.163 10.5268ZM118.918 8.65723C115.629 9.70886 113.309 13.5148 113.91 16.9033C114.177 18.4391 115.095 20.1751 116.13 21.1099C117.733 22.5454 119.335 23.0963 121.572 22.9961C123.391 22.9127 124.526 22.4787 125.945 21.3436L126.997 20.4922L126.897 22.0113C126.83 22.8459 126.68 23.7807 126.546 24.0978C126.162 25.0326 125.194 25.9507 124.076 26.4682C123.158 26.8688 122.807 26.9356 121.438 26.9356C119.352 26.9523 118.4 26.6184 117.132 25.4666C116.614 24.9825 116.013 24.4985 115.813 24.3983C115.446 24.198 114.094 24.1145 114.094 24.2815C114.094 24.5819 114.845 25.7504 115.479 26.4682C118.066 29.3393 124.193 29.4561 126.947 26.7019C127.314 26.3346 127.765 25.7337 127.948 25.3498C128.683 23.9142 128.783 22.8793 128.783 15.5513V8.67392H126.947V9.75894C126.947 10.3599 126.897 10.844 126.847 10.844C126.797 10.844 126.463 10.6269 126.129 10.3766C123.875 8.59046 121.138 7.95614 118.918 8.65723ZM124.026 10.7104C125.027 11.2279 125.929 12.146 126.463 13.1809C126.813 13.8319 126.863 14.1658 126.863 15.7683C126.863 17.4876 126.83 17.6545 126.379 18.4891C125.778 19.5742 124.994 20.2752 123.792 20.8261C123.024 21.1766 122.623 21.2434 121.438 21.2434C119.852 21.2267 118.918 20.9596 117.899 20.2085C115.162 18.1887 115.028 13.9321 117.649 11.5951C118.851 10.4934 119.852 10.1596 121.689 10.2263C122.907 10.2764 123.341 10.3599 124.026 10.7104ZM137.079 8.67392C133.707 9.74225 131.437 13.5315 132.088 17.0202C132.839 21.0264 135.61 23.4301 139.466 23.4134C142.454 23.3967 145.342 21.6774 146.127 19.474C146.277 19.0567 146.243 19.0066 145.626 18.6728L144.941 18.3389L143.773 19.5074C142.154 21.1433 141.152 21.6106 139.299 21.6106C138.148 21.6106 137.73 21.5439 137.096 21.2267C135.477 20.4255 134.191 18.606 134.091 16.9367L134.041 16.1021L140.434 16.052L146.811 16.0186V15.5179C146.811 12.5132 144.524 9.44178 141.653 8.60715C140.418 8.23992 138.298 8.2733 137.079 8.67392ZM141.536 10.5268C142.638 10.9274 143.856 12.0458 144.307 13.0641C144.941 14.4495 145.292 14.3494 139.466 14.3494C133.724 14.3494 134.041 14.4162 134.542 13.231C135.093 11.929 136.178 10.9107 137.58 10.4099C138.565 10.0594 140.468 10.1095 141.536 10.5268ZM155.575 8.57377C154.64 8.87423 154.306 9.07454 153.171 10.0093L152.169 10.844L152.119 9.79232L152.069 8.75739L151.201 8.70731L150.316 8.65723V23.0295H152.136L152.186 18.4724C152.236 14.1491 152.253 13.8987 152.62 13.0974C153.071 12.0959 153.955 11.1444 154.99 10.5435C155.641 10.1596 155.925 10.0928 157.094 10.0928C158.83 10.0928 159.564 10.5268 160.282 11.9624L160.749 12.9305L160.799 17.9717L160.866 23.0295H162.686L162.635 17.6378C162.585 12.8804 162.535 12.1627 162.252 11.4282C161.834 10.3098 160.499 8.99108 159.43 8.62384C158.462 8.28999 156.543 8.2733 155.575 8.57377ZM171.649 8.59046C168.244 9.52524 166.007 12.4631 166.007 16.0019C166.007 20.2919 169.396 23.4468 174.02 23.4301C176.34 23.4134 179.011 22.2283 180.079 20.7426L180.513 20.125L179.829 19.6743L179.144 19.2069L178.46 19.7912C176.991 21.0598 174.754 21.811 173.035 21.644C171.816 21.5105 170.181 20.6926 169.413 19.8078C168.378 18.6227 167.944 17.4876 167.944 15.9352C167.927 14.7834 167.994 14.4495 168.444 13.4981C169.079 12.146 169.947 11.278 171.165 10.6937C172 10.3098 172.3 10.2597 174.02 10.2597C175.806 10.2597 176.006 10.2931 176.824 10.7271C177.325 10.9942 178.059 11.5117 178.46 11.8789L179.194 12.5633L179.862 12.1126L180.547 11.6619L180.213 11.1945C179.378 10.0427 177.809 8.99108 176.273 8.60715C175.088 8.28999 172.751 8.28999 171.649 8.59046ZM182.7 8.80746C182.7 8.89093 183.935 11.7453 185.454 15.1673C187.274 19.2737 188.208 21.5773 188.208 21.9612C188.208 22.295 187.741 23.5971 187.023 25.2162C186.372 26.6852 185.888 28.0039 185.938 28.1374C186.072 28.5047 187.257 28.4379 187.608 28.054C187.774 27.887 188.492 26.3513 189.243 24.6654C193.617 14.6665 196.054 8.99108 196.054 8.84085C196.054 8.724 195.72 8.67392 195.186 8.70731L194.301 8.75739L193.8 9.75894C193.533 10.3098 192.448 12.7302 191.397 15.1506C190.345 17.571 189.444 19.4907 189.36 19.4072C189.293 19.3405 188.242 17.0202 187.023 14.2659C185.821 11.5117 184.703 9.12462 184.569 8.9577C184.386 8.75738 184.069 8.67392 183.501 8.67392C183.067 8.67392 182.7 8.74069 182.7 8.80746ZM90.2232 20.2585C89.4887 20.4922 88.9379 21.4103 89.1215 22.0947C89.422 23.3133 90.8909 23.7807 91.8424 22.9627C92.2263 22.6289 92.3098 22.4286 92.3098 21.811C92.3098 20.5757 91.375 19.8746 90.2232 20.2585Z" fill="black"/>
</svg>
